<?xml version="1.0" standalone="no"?><!DOCTYPE svg PUBLIC "-//W3C//DTD SVG 1.1//EN" "http://www.w3.org/Graphics/SVG/1.1/DTD/svg11.dtd"><svg width="100%" height="100%" viewBox="0 0 90 98" version="1.1" xmlns="http://www.w3.org/2000/svg" xmlns:xlink="http://www.w3.org/1999/xlink" xml:space="preserve" style="fill-rule:evenodd;clip-rule:evenodd;stroke-linejoin:round;stroke-miterlimit:1.41421;"><g><path d="M89.755,14.98l-0.046,0c-16.716,0 -32.175,-5.427 -44.71,-14.614c-12.534,9.187 -27.993,14.614 -44.709,14.614l-0.046,0c-0.015,10.218 -0.031,23.29 -0.031,30.562c0,24.718 33.608,47.906 44.787,52.093c11.178,-4.187 44.786,-27.375 44.786,-52.093c0,-7.272 -0.017,-20.344 -0.031,-30.562ZM43.115,8.653l3.921,0l0,14.615l-3.921,0l0,-14.615ZM44.693,29.595c0.101,0 0.205,0.006 0.307,0.007c1.039,0.009 2.1,0.059 3.192,0.163c1.199,0.113 2.379,0.273 3.542,0.478c1.163,0.206 2.287,0.443 3.372,0.713c1.085,0.269 2.088,0.553 3.01,0.851l0,6.765c-0.553,-0.27 -1.284,-0.575 -2.191,-0.915c-0.908,-0.341 -1.936,-0.663 -3.085,-0.968c-1.148,-0.305 -2.396,-0.56 -3.744,-0.766c-1.33,-0.203 -2.697,-0.304 -4.097,-0.306c-0.017,-0.001 -0.034,-0.002 -0.051,-0.002c-1.134,0 -2.102,0.035 -2.904,0.106c-0.801,0.071 -1.474,0.163 -2.021,0.277c-0.545,0.113 -0.978,0.244 -1.297,0.393c-0.319,0.149 -0.564,0.301 -0.734,0.457c-0.17,0.156 -0.28,0.312 -0.33,0.468c-0.049,0.156 -0.074,0.298 -0.074,0.426c0,0.425 0.212,0.798 0.638,1.117c0.425,0.319 1.007,0.602 1.744,0.851c0.738,0.248 1.596,0.482 2.574,0.702c0.777,0.174 1.603,0.354 2.456,0.538c0.221,0.047 0.434,0.094 0.661,0.142c1.099,0.234 2.233,0.49 3.403,0.766c1.17,0.277 2.305,0.599 3.404,0.968c1.099,0.369 2.138,0.798 3.116,1.287c0.979,0.489 1.837,1.06 2.574,1.712c0.738,0.653 1.319,1.404 1.745,2.255c0.425,0.851 0.638,1.823 0.638,2.915c0,1.404 -0.248,2.609 -0.745,3.616c-0.496,1.007 -1.159,1.858 -1.989,2.553c-0.829,0.695 -1.79,1.251 -2.882,1.67c-1.092,0.418 -2.237,0.741 -3.436,0.968c-1.198,0.227 -2.411,0.375 -3.637,0.446c-0.994,0.058 -1.938,0.086 -2.853,0.097c-0.214,0.002 -0.437,0.01 -0.646,0.01c-2.894,0 -5.57,-0.238 -8.031,-0.713c-2.46,-0.475 -4.634,-1.067 -6.52,-1.776l0,-6.978c1.943,1.078 4.159,1.922 6.648,2.532c2.489,0.61 5.151,0.915 7.988,0.915c0.196,0 0.374,-0.006 0.561,-0.008c1.414,-0.019 2.601,-0.102 3.534,-0.258c1.056,-0.178 1.882,-0.405 2.478,-0.681c0.596,-0.277 1,-0.578 1.212,-0.904c0.213,-0.326 0.319,-0.638 0.319,-0.936c0,-0.468 -0.212,-0.876 -0.638,-1.223c-0.425,-0.348 -1.007,-0.653 -1.744,-0.915c-0.737,-0.262 -1.596,-0.504 -2.574,-0.723c-0.817,-0.184 -1.686,-0.367 -2.587,-0.551c-0.178,-0.036 -0.348,-0.072 -0.53,-0.109c-1.099,-0.22 -2.229,-0.457 -3.393,-0.712c-1.162,-0.256 -2.293,-0.557 -3.392,-0.905c-1.1,-0.347 -2.138,-0.751 -3.117,-1.212c-0.978,-0.461 -1.836,-1.007 -2.574,-1.638c-0.737,-0.631 -1.319,-1.362 -1.744,-2.191c-0.426,-0.83 -0.638,-1.791 -0.638,-2.883c0,-1.29 0.227,-2.403 0.68,-3.339c0.454,-0.936 1.067,-1.734 1.84,-2.394c0.773,-0.659 1.667,-1.194 2.681,-1.606c1.014,-0.411 2.081,-0.73 3.201,-0.957c1.121,-0.227 2.255,-0.383 3.404,-0.468c1.149,-0.085 2.241,-0.127 3.276,-0.127ZM75.256,45.356l-0.002,0.195l-0.003,0.194l-0.005,0.194l-0.005,0.194l-0.007,0.194l-0.008,0.193l-0.009,0.193l-0.01,0.192l-0.012,0.193l-0.013,0.192l-0.014,0.191l-0.015,0.192l-0.016,0.191l-0.018,0.19l-0.019,0.191l-0.02,0.19l-0.021,0.189l-0.022,0.19l-0.023,0.188l-0.025,0.189l-0.026,0.188l-0.027,0.188l-0.028,0.187l-0.029,0.187l-0.03,0.187l-0.032,0.186l-0.032,0.186l-0.034,0.186l-0.035,0.185l-0.036,0.185l-0.037,0.184l-0.039,0.184l-0.039,0.183l-0.041,0.183l-0.041,0.183l-0.043,0.182l-0.044,0.182l-0.044,0.182l-0.047,0.181l-0.047,0.18l-0.048,0.18l-0.049,0.18l-0.05,0.179l-0.052,0.179l-0.052,0.178l-0.054,0.178l-0.055,0.177l-0.055,0.177l-0.057,0.177l-0.058,0.176l-0.059,0.175l-0.059,0.175l-0.061,0.175l-0.062,0.174l-0.063,0.173l-0.064,0.173l-0.065,0.173l-0.066,0.172l-0.068,0.172l-0.068,0.171l-0.069,0.17l-0.07,0.17l-0.071,0.17l-0.072,0.169l-0.073,0.168l-0.074,0.168l-0.075,0.167l-0.077,0.167l-0.077,0.166l-0.078,0.166l-0.079,0.165l-0.08,0.165l-0.081,0.164l-0.082,0.164l-0.083,0.163l-0.083,0.162l-0.085,0.162l-0.086,0.161l-0.087,0.161l-0.087,0.16l-0.089,0.159l-0.089,0.159l-0.091,0.158l-0.091,0.158l-0.092,0.157l-0.093,0.157l-0.095,0.155l-0.095,0.156l-0.096,0.154l-0.096,0.154l-0.098,0.154l-0.099,0.153l-0.099,0.152l-0.101,0.151l-0.101,0.151l-0.102,0.15l-0.103,0.15l-0.104,0.149l-0.105,0.148l-0.106,0.148l-0.106,0.147l-0.108,0.146l-0.108,0.145l-0.109,0.145l-0.11,0.145l-0.111,0.143l-0.111,0.143l-0.113,0.142l-0.113,0.142l-0.114,0.141l-0.115,0.14l-0.116,0.139l-0.116,0.139l-0.118,0.138l-0.118,0.137l-0.119,0.137l-0.12,0.135l-0.121,0.136l-0.121,0.134l-0.122,0.134l-0.123,0.133l-0.124,0.132l-0.125,0.131l-0.125,0.131l-0.126,0.13l-0.127,0.129l-0.128,0.128l-0.128,0.128l-0.129,0.127l-0.13,0.126l-0.131,0.125l-0.131,0.125l-0.132,0.124l-0.133,0.123l-0.134,0.122l-0.134,0.121l-0.136,0.121l-0.135,0.12l-0.137,0.119l-0.137,0.118l-0.138,0.117l-0.139,0.117l-0.139,0.116l-0.14,0.115l-0.141,0.114l-0.142,0.113l-0.142,0.113l-0.143,0.111l-0.143,0.111l-0.145,0.11l-0.145,0.109l-0.145,0.108l-0.146,0.108l-0.147,0.106l-0.148,0.106l-0.148,0.105l-0.149,0.104l-0.15,0.103l-0.15,0.102l-0.151,0.101l-0.151,0.101l-0.152,0.099l-0.153,0.099l-0.154,0.098l-0.154,0.096l-0.154,0.096l-0.156,0.095l-0.155,0.094l-0.157,0.094l-0.157,0.092l-0.158,0.091l-0.158,0.091l-0.159,0.089l-0.159,0.089l-0.16,0.087l-0.161,0.087l-0.161,0.086l-0.162,0.085l-0.163,0.083l-0.162,0.083l-0.164,0.082l-0.164,0.081l-0.165,0.08l-0.165,0.079l-0.165,0.078l-0.167,0.077l-0.167,0.076l-0.167,0.076l-0.168,0.074l-0.168,0.073l-0.169,0.072l-0.17,0.071l-0.17,0.07l-0.17,0.069l-0.171,0.068l-0.172,0.067l-0.172,0.067l-0.173,0.065l-0.173,0.064l-0.173,0.063l-0.174,0.062l-0.175,0.06l-0.175,0.06l-0.175,0.059l-0.176,0.058l-0.177,0.057l-0.177,0.055l-0.177,0.055l-0.178,0.054l-0.178,0.052l-0.179,0.052l-0.179,0.05l-0.18,0.049l-0.18,0.048l-0.18,0.047l-0.181,0.046l-0.182,0.045l-0.182,0.044l-0.182,0.043l-0.183,0.041l-0.183,0.041l-0.183,0.039l-0.184,0.039l-0.184,0.037l-0.185,0.036l-0.185,0.035l-0.186,0.033l-0.186,0.033l-0.186,0.032l-0.187,0.03l-0.187,0.029l-0.187,0.028l-0.188,0.027l-0.188,0.026l-0.189,0.025l-0.188,0.023l-0.19,0.022l-0.189,0.021l-0.19,0.02l-0.191,0.019l-0.19,0.018l-0.191,0.016l-0.191,0.015l-0.192,0.014l-0.192,0.013l-0.192,0.012l-0.193,0.01l-0.193,0.009l-0.193,0.008l-0.194,0.007l-0.194,0.005l-0.194,0.005l-0.194,0.003l-0.195,0.002l-0.195,0l-0.076,0l-0.119,0l-0.195,-0.002l-0.195,-0.003l-0.194,-0.005l-0.194,-0.005l-0.193,-0.007l-0.193,-0.008l-0.193,-0.009l-0.193,-0.01l-0.192,-0.012l-0.192,-0.013l-0.192,-0.014l-0.191,-0.015l-0.191,-0.016l-0.191,-0.018l-0.19,-0.019l-0.19,-0.02l-0.19,-0.021l-0.189,-0.022l-0.189,-0.023l-0.189,-0.025l-0.188,-0.026l-0.187,-0.027l-0.188,-0.028l-0.187,-0.029l-0.187,-0.03l-0.186,-0.032l-0.186,-0.033l-0.185,-0.033l-0.185,-0.035l-0.185,-0.036l-0.185,-0.037l-0.183,-0.039l-0.184,-0.039l-0.183,-0.041l-0.183,-0.041l-0.182,-0.043l-0.182,-0.044l-0.181,-0.045l-0.181,-0.046l-0.181,-0.047l-0.18,-0.048l-0.179,-0.049l-0.18,-0.05l-0.178,-0.052l-0.179,-0.052l-0.178,-0.054l-0.177,-0.055l-0.177,-0.055l-0.176,-0.057l-0.176,-0.058l-0.176,-0.059l-0.175,-0.06l-0.174,-0.06l-0.174,-0.062l-0.174,-0.063l-0.173,-0.064l-0.173,-0.065l-0.171,-0.067l-0.172,-0.067l-0.171,-0.068l-0.171,-0.069l-0.17,-0.07l-0.169,-0.071l-0.169,-0.072l-0.169,-0.073l-0.168,-0.074l-0.167,-0.076l-0.167,-0.076l-0.166,-0.077l-0.166,-0.078l-0.165,-0.079l-0.165,-0.08l-0.164,-0.081l-0.163,-0.082l-0.163,-0.083l-0.162,-0.083l-0.162,-0.085l-0.161,-0.086l-0.161,-0.087l-0.16,-0.087l-0.16,-0.089l-0.159,-0.089l-0.158,-0.091l-0.157,-0.091l-0.158,-0.092l-0.156,-0.094l-0.156,-0.094l-0.155,-0.095l-0.155,-0.096l-0.154,-0.096l-0.153,-0.098l-0.153,-0.099l-0.152,-0.099l-0.152,-0.101l-0.151,-0.101l-0.15,-0.102l-0.149,-0.103l-0.149,-0.104l-0.148,-0.105l-0.148,-0.106l-0.147,-0.106l-0.146,-0.108l-0.146,-0.108l-0.145,-0.109l-0.144,-0.11l-0.144,-0.111l-0.143,-0.111l-0.142,-0.113l-0.141,-0.113l-0.141,-0.114l-0.14,-0.115l-0.14,-0.116l-0.138,-0.117l-0.138,-0.117l-0.138,-0.118l-0.136,-0.119l-0.136,-0.12l-0.135,-0.121l-0.135,-0.121l-0.133,-0.122l-0.133,-0.123l-0.132,-0.124l-0.132,-0.125l-0.13,-0.125l-0.13,-0.126l-0.13,-0.127l-0.128,-0.128l-0.127,-0.128l-0.127,-0.129l-0.127,-0.13l-0.125,-0.131l-0.125,-0.131l-0.123,-0.132l-0.123,-0.133l-0.122,-0.134l-0.122,-0.134l-0.121,-0.136l-0.119,-0.135l-0.119,-0.137l-0.119,-0.137l-0.117,-0.138l-0.117,-0.139l-0.115,-0.139l-0.115,-0.14l-0.114,-0.141l-0.114,-0.142l-0.112,-0.142l-0.112,-0.143l-0.111,-0.143l-0.11,-0.145l-0.109,-0.145l-0.108,-0.145l-0.107,-0.146l-0.107,-0.147l-0.106,-0.148l-0.104,-0.148l-0.104,-0.149l-0.103,-0.15l-0.102,-0.15l-0.102,-0.151l-0.1,-0.151l-0.1,-0.152l-0.098,-0.153l-0.098,-0.154l-0.097,-0.154l-0.096,-0.154l-0.095,-0.156l-0.094,-0.155l-0.093,-0.157l-0.092,-0.157l-0.092,-0.158l-0.09,-0.158l-0.09,-0.159l-0.088,-0.159l-0.088,-0.16l-0.087,-0.161l-0.085,-0.161l-0.085,-0.162l-0.084,-0.162l-0.083,-0.163l-0.082,-0.164l-0.081,-0.164l-0.08,-0.165l-0.079,-0.165l-0.078,-0.166l-0.077,-0.166l-0.076,-0.167l-0.075,-0.167l-0.074,-0.168l-0.073,-0.168l-0.072,-0.169l-0.072,-0.17l-0.07,-0.17l-0.069,-0.17l-0.068,-0.171l-0.067,-0.172l-0.066,-0.172l-0.065,-0.173l-0.064,-0.173l-0.063,-0.173l-0.062,-0.174l-0.061,-0.175l-0.06,-0.175l-0.059,-0.175l-0.057,-0.176l-0.057,-0.177l-0.056,-0.177l-0.055,-0.177l-0.053,-0.178l-0.053,-0.178l-0.051,-0.179l-0.05,-0.179l-0.05,-0.18l-0.048,-0.18l-0.047,-0.18l-0.046,-0.181l-0.045,-0.182l-0.044,-0.182l-0.042,-0.182l-0.042,-0.183l-0.041,-0.183l-0.039,-0.183l-0.038,-0.184l-0.037,-0.184l-0.036,-0.185l-0.035,-0.185l-0.034,-0.186l-0.033,-0.186l-0.031,-0.186l-0.03,-0.187l-0.03,-0.187l-0.028,-0.187l-0.027,-0.188l-0.025,-0.188l-0.025,-0.189l-0.024,-0.188l-0.022,-0.19l-0.021,-0.189l-0.02,-0.19l-0.019,-0.191l-0.017,-0.19l-0.017,-0.191l-0.015,-0.192l-0.014,-0.191l-0.013,-0.192l-0.011,-0.193l-0.011,-0.192l-0.009,-0.193l-0.008,-0.193l-0.006,-0.194l-0.006,-0.194l-0.004,-0.194l-0.003,-0.194l-0.002,-0.195l-0.001,-0.195l0.001,-0.195l0.002,-0.195l0.003,-0.195l0.004,-0.194l0.006,-0.194l0.006,-0.193l0.008,-0.193l0.009,-0.193l0.011,-0.193l0.011,-0.192l0.013,-0.192l0.014,-0.192l0.015,-0.191l0.017,-0.191l0.017,-0.191l0.019,-0.19l0.02,-0.19l0.021,-0.19l0.022,-0.189l0.024,-0.189l0.025,-0.189l0.025,-0.188l0.027,-0.187l0.028,-0.188l0.03,-0.187l0.03,-0.187l0.031,-0.186l0.033,-0.186l0.034,-0.185l0.035,-0.186l0.036,-0.184l0.037,-0.184l0.038,-0.184l0.039,-0.184l0.041,-0.183l0.042,-0.183l0.042,-0.182l0.044,-0.182l0.045,-0.181l0.046,-0.181l0.047,-0.181l0.048,-0.18l0.05,-0.179l0.05,-0.18l0.051,-0.178l0.053,-0.179l0.053,-0.177l0.055,-0.178l0.056,-0.177l0.057,-0.176l0.057,-0.176l0.059,-0.176l0.06,-0.175l0.061,-0.174l0.062,-0.174l0.063,-0.174l0.064,-0.173l0.065,-0.173l0.066,-0.172l0.067,-0.171l0.068,-0.171l0.069,-0.171l0.07,-0.17l0.072,-0.169l0.072,-0.169l0.073,-0.169l0.074,-0.167l0.075,-0.168l0.076,-0.167l0.077,-0.166l0.078,-0.166l0.079,-0.165l0.08,-0.165l0.081,-0.164l0.082,-0.163l0.083,-0.163l0.084,-0.162l0.085,-0.162l0.085,-0.161l0.087,-0.161l0.088,-0.16l0.088,-0.16l0.09,-0.159l0.09,-0.158l0.092,-0.158l0.092,-0.157l0.093,-0.156l0.094,-0.156l0.095,-0.155l0.096,-0.155l0.097,-0.154l0.098,-0.153l0.098,-0.153l0.1,-0.152l0.1,-0.152l0.102,-0.151l0.102,-0.15l0.103,-0.149l0.104,-0.149l0.104,-0.148l0.106,-0.148l0.107,-0.147l0.107,-0.146l0.108,-0.146l0.109,-0.145l0.11,-0.144l0.111,-0.144l0.112,-0.143l0.112,-0.142l0.114,-0.141l0.114,-0.141l0.115,-0.14l0.115,-0.14l0.117,-0.138l0.117,-0.138l0.119,-0.138l0.119,-0.136l0.119,-0.136l0.121,-0.135l0.122,-0.135l0.122,-0.133l0.123,-0.133l0.123,-0.132l0.125,-0.132l0.125,-0.13l0.127,-0.13l0.127,-0.13l0.127,-0.128l0.128,-0.128l0.13,-0.126l0.13,-0.127l0.13,-0.125l0.132,-0.125l0.132,-0.123l0.133,-0.123l0.133,-0.123l0.135,-0.121l0.135,-0.121l0.136,-0.119l0.136,-0.119l0.138,-0.119l0.138,-0.117l0.138,-0.117l0.14,-0.115l0.14,-0.115l0.141,-0.114l0.141,-0.114l0.142,-0.112l0.143,-0.112l0.144,-0.111l0.144,-0.11l0.145,-0.109l0.146,-0.108l0.146,-0.107l0.147,-0.107l0.148,-0.106l0.148,-0.104l0.149,-0.104l0.149,-0.103l0.15,-0.103l0.151,-0.101l0.152,-0.1l0.152,-0.1l0.153,-0.098l0.153,-0.098l0.154,-0.097l0.155,-0.096l0.155,-0.095l0.156,-0.094l0.156,-0.093l0.158,-0.092l0.157,-0.092l0.158,-0.09l0.159,-0.09l0.16,-0.088l0.16,-0.088l0.161,-0.087l0.161,-0.085l0.162,-0.085l0.162,-0.084l0.163,-0.083l0.163,-0.082l0.164,-0.081l0.165,-0.08l0.165,-0.079l0.166,-0.078l0.166,-0.077l0.167,-0.076l0.167,-0.075l0.168,-0.074l0.169,-0.073l0.169,-0.072l0.169,-0.072l0.17,-0.07l0.171,-0.069l0.171,-0.068l0.172,-0.067l0.171,-0.066l0.173,-0.065l0.173,-0.064l0.174,-0.063l0.174,-0.062l0.174,-0.061l0.175,-0.06l0.176,-0.059l0.176,-0.058l0.176,-0.056l0.177,-0.056l0.177,-0.055l0.178,-0.053l0.179,-0.053l0.178,-0.051l0.18,-0.05l0.179,-0.05l0.18,-0.048l0.181,-0.047l0.181,-0.046l0.181,-0.045l0.182,-0.044l0.182,-0.042l0.183,-0.042l0.183,-0.041l0.184,-0.039l0.183,-0.038l0.185,-0.037l0.013,-0.003l0,4.009l-0.048,0.011l-0.158,0.037l-0.158,0.038l-0.158,0.039l-0.157,0.04l-0.157,0.041l-0.157,0.042l-0.156,0.043l-0.156,0.044l-0.155,0.044l-0.155,0.046l-0.154,0.046l-0.154,0.048l-0.154,0.048l-0.153,0.049l-0.153,0.051l-0.153,0.051l-0.152,0.052l-0.152,0.053l-0.151,0.054l-0.151,0.054l-0.15,0.056l-0.15,0.057l-0.15,0.057l-0.149,0.058l-0.149,0.06l-0.148,0.06l-0.147,0.061l-0.148,0.061l-0.147,0.063l-0.146,0.064l-0.146,0.064l-0.146,0.065l-0.145,0.067l-0.144,0.067l-0.144,0.067l-0.144,0.069l-0.143,0.07l-0.143,0.07l-0.142,0.071l-0.142,0.072l-0.141,0.073l-0.141,0.074l-0.14,0.075l-0.14,0.075l-0.139,0.076l-0.139,0.077l-0.138,0.078l-0.138,0.079l-0.137,0.079l-0.136,0.081l-0.137,0.081l-0.135,0.082l-0.135,0.082l-0.135,0.084l-0.134,0.084l-0.133,0.085l-0.134,0.086l-0.132,0.087l-0.132,0.087l-0.131,0.088l-0.131,0.089l-0.13,0.09l-0.13,0.09l-0.129,0.092l-0.128,0.092l-0.128,0.092l-0.127,0.094l-0.127,0.094l-0.126,0.095l-0.126,0.096l-0.125,0.096l-0.124,0.097l-0.124,0.098l-0.123,0.099l-0.123,0.099l-0.122,0.101l-0.122,0.1l-0.12,0.102l-0.121,0.102l-0.119,0.103l-0.119,0.104l-0.118,0.104l-0.118,0.105l-0.117,0.106l-0.116,0.106l-0.116,0.108l-0.116,0.107l-0.114,0.109l-0.114,0.109l-0.113,0.11l-0.112,0.11l-0.112,0.112l-0.111,0.112l-0.111,0.112l-0.11,0.113l-0.109,0.114l-0.108,0.114l-0.108,0.116l-0.108,0.115l-0.106,0.117l-0.106,0.117l-0.105,0.117l-0.104,0.119l-0.104,0.119l-0.103,0.119l-0.102,0.121l-0.102,0.12l-0.1,0.122l-0.101,0.122l-0.099,0.122l-0.099,0.124l-0.098,0.123l-0.097,0.125l-0.096,0.125l-0.096,0.126l-0.095,0.126l-0.094,0.126l-0.094,0.128l-0.092,0.128l-0.092,0.128l-0.092,0.129l-0.09,0.13l-0.09,0.13l-0.089,0.131l-0.088,0.131l-0.087,0.132l-0.087,0.133l-0.086,0.133l-0.085,0.133l-0.084,0.134l-0.084,0.135l-0.082,0.135l-0.082,0.135l-0.081,0.136l-0.081,0.137l-0.079,0.137l-0.079,0.138l-0.078,0.138l-0.077,0.139l-0.076,0.139l-0.075,0.14l-0.075,0.14l-0.074,0.141l-0.073,0.141l-0.072,0.142l-0.071,0.142l-0.07,0.143l-0.07,0.143l-0.069,0.144l-0.068,0.144l-0.067,0.144l-0.066,0.145l-0.065,0.146l-0.064,0.146l-0.064,0.146l-0.063,0.147l-0.061,0.148l-0.061,0.147l-0.061,0.148l-0.059,0.149l-0.058,0.149l-0.057,0.15l-0.057,0.15l-0.056,0.15l-0.054,0.151l-0.054,0.151l-0.053,0.152l-0.052,0.152l-0.051,0.153l-0.051,0.153l-0.049,0.153l-0.048,0.154l-0.048,0.154l-0.046,0.154l-0.046,0.155l-0.044,0.156l-0.044,0.155l-0.043,0.156l-0.042,0.157l-0.041,0.157l-0.04,0.157l-0.039,0.158l-0.038,0.158l-0.037,0.158l-0.036,0.159l-0.035,0.159l-0.035,0.16l-0.033,0.159l-0.032,0.161l-0.032,0.16l-0.03,0.161l-0.029,0.161l-0.029,0.162l-0.027,0.162l-0.026,0.162l-0.026,0.163l-0.024,0.163l-0.024,0.163l-0.022,0.164l-0.022,0.164l-0.02,0.164l-0.019,0.165l-0.019,0.165l-0.017,0.165l-0.016,0.166l-0.016,0.166l-0.014,0.166l-0.013,0.167l-0.012,0.167l-0.011,0.167l-0.01,0.168l-0.01,0.167l-0.007,0.169l-0.008,0.168l-0.005,0.169l-0.005,0.169l-0.004,0.169l-0.003,0.17l-0.001,0.169l-0.001,0.171l0.002,0.34l0.003,0.169l0.004,0.17l0.005,0.169l0.005,0.168l0.008,0.169l0.007,0.168l0.01,0.168l0.01,0.167l0.011,0.168l0.012,0.167l0.013,0.166l0.014,0.166l0.032,0.332l0.017,0.165l0.038,0.33l0.02,0.164l0.044,0.328l0.048,0.326l0.026,0.163l0.026,0.162l0.027,0.162l0.029,0.162l0.029,0.161l0.03,0.161l0.032,0.161l0.032,0.16l0.033,0.16l0.035,0.159l0.035,0.16l0.036,0.158l0.037,0.159l0.038,0.158l0.039,0.157l0.04,0.158l0.041,0.157l0.042,0.156l0.043,0.156l0.044,0.156l0.044,0.155l0.092,0.31l0.096,0.308l0.049,0.153l0.051,0.153l0.051,0.152l0.052,0.152l0.053,0.152l0.108,0.302l0.056,0.151l0.057,0.15l0.057,0.149l0.058,0.149l0.059,0.149l0.122,0.296l0.061,0.147l0.063,0.147l0.064,0.147l0.064,0.146l0.065,0.145l0.066,0.145l0.068,0.145l0.067,0.144l0.069,0.143l0.07,0.144l0.07,0.142l0.071,0.143l0.072,0.141l0.073,0.141l0.074,0.141l0.15,0.28l0.076,0.139l0.078,0.139l0.077,0.138l0.079,0.138l0.079,0.137l0.081,0.137l0.081,0.136l0.082,0.136l0.082,0.135l0.168,0.268l0.085,0.134l0.086,0.133l0.174,0.264l0.088,0.131l0.089,0.131l0.18,0.26l0.184,0.258l0.092,0.128l0.188,0.254l0.095,0.126l0.096,0.126l0.096,0.125l0.098,0.124l0.097,0.124l0.198,0.246l0.101,0.122l0.1,0.121l0.102,0.121l0.102,0.12l0.103,0.12l0.104,0.119l0.104,0.118l0.105,0.118l0.106,0.117l0.106,0.116l0.108,0.116l0.107,0.115l0.218,0.228l0.11,0.113l0.111,0.113l0.111,0.112l0.111,0.111l0.113,0.111l0.113,0.109l0.114,0.11l0.114,0.108l0.116,0.108l0.115,0.107l0.117,0.107l0.117,0.105l0.236,0.21l0.238,0.206l0.121,0.103l0.12,0.101l0.122,0.101l0.122,0.1l0.122,0.099l0.124,0.099l0.124,0.098l0.124,0.097l0.125,0.097l0.126,0.096l0.126,0.094l0.127,0.095l0.127,0.093l0.128,0.093l0.128,0.092l0.129,0.091l0.13,0.091l0.13,0.089l0.131,0.089l0.131,0.088l0.132,0.088l0.266,0.172l0.133,0.085l0.134,0.085l0.27,0.166l0.135,0.082l0.137,0.081l0.136,0.08l0.137,0.08l0.276,0.156l0.139,0.077l0.139,0.076l0.14,0.076l0.14,0.074l0.141,0.074l0.141,0.073l0.142,0.072l0.142,0.071l0.143,0.071l0.143,0.069l0.144,0.069l0.144,0.068l0.144,0.067l0.145,0.066l0.292,0.13l0.146,0.063l0.147,0.063l0.148,0.062l0.147,0.061l0.148,0.06l0.149,0.059l0.149,0.058l0.15,0.058l0.3,0.112l0.151,0.055l0.151,0.054l0.152,0.053l0.152,0.052l0.153,0.051l0.153,0.05l0.153,0.049l0.154,0.049l0.308,0.094l0.155,0.045l0.156,0.045l0.155,0.044l0.156,0.043l0.314,0.082l0.157,0.04l0.158,0.039l0.158,0.038l0.158,0.037l0.159,0.037l0.159,0.035l0.16,0.034l0.159,0.033l0.161,0.033l0.16,0.031l0.322,0.06l0.324,0.056l0.162,0.026l0.326,0.05l0.163,0.023l0.164,0.023l0.164,0.021l0.164,0.02l0.165,0.02l0.165,0.018l0.166,0.017l0.165,0.017l0.166,0.015l0.167,0.014l0.166,0.013l0.167,0.013l0.167,0.011l0.168,0.01l0.167,0.009l0.168,0.008l0.169,0.007l0.169,0.006l0.169,0.005l0.169,0.003l0.17,0.003l0.17,0.002l0.34,0l0.17,-0.002l0.169,-0.003l0.17,-0.003l0.169,-0.005l0.169,-0.006l0.168,-0.007l0.168,-0.008l0.168,-0.009l0.167,-0.01l0.168,-0.011l0.167,-0.013l0.166,-0.013l0.166,-0.014l0.166,-0.015l0.166,-0.017l0.165,-0.017l0.165,-0.018l0.165,-0.02l0.164,-0.02l0.164,-0.021l0.164,-0.023l0.164,-0.023l0.162,-0.025l0.163,-0.025l0.162,-0.026l0.162,-0.028l0.162,-0.028l0.161,-0.03l0.161,-0.03l0.161,-0.031l0.16,-0.033l0.16,-0.033l0.159,-0.034l0.16,-0.035l0.158,-0.037l0.159,-0.037l0.158,-0.038l0.157,-0.039l0.158,-0.04l0.156,-0.041l0.157,-0.041l0.156,-0.043l0.156,-0.044l0.155,-0.045l0.155,-0.045l0.155,-0.047l0.154,-0.047l0.154,-0.049l0.153,-0.049l0.153,-0.05l0.152,-0.051l0.153,-0.052l0.151,-0.053l0.151,-0.054l0.151,-0.055l0.151,-0.056l0.15,-0.056l0.149,-0.058l0.149,-0.058l0.149,-0.059l0.148,-0.06l0.148,-0.061l0.147,-0.062l0.147,-0.063l0.147,-0.063l0.146,-0.065l0.145,-0.065l0.145,-0.066l0.145,-0.067l0.144,-0.068l0.143,-0.069l0.144,-0.069l0.142,-0.071l0.142,-0.071l0.142,-0.072l0.141,-0.073l0.141,-0.074l0.141,-0.074l0.139,-0.076l0.139,-0.076l0.139,-0.077l0.138,-0.078l0.138,-0.078l0.137,-0.08l0.137,-0.08l0.136,-0.081l0.136,-0.082l0.135,-0.083l0.134,-0.083l0.135,-0.085l0.133,-0.085l0.133,-0.086l0.132,-0.086l0.132,-0.088l0.132,-0.088l0.13,-0.089l0.13,-0.089l0.13,-0.091l0.129,-0.091l0.129,-0.092l0.128,-0.093l0.127,-0.093l0.127,-0.095l0.126,-0.094l0.126,-0.096l0.125,-0.097l0.124,-0.097l0.124,-0.098l0.123,-0.099l0.123,-0.099l0.122,-0.1l0.121,-0.101l0.121,-0.101l0.12,-0.103l0.12,-0.103l0.119,-0.103l0.118,-0.105l0.118,-0.105l0.117,-0.105l0.116,-0.107l0.116,-0.107l0.115,-0.108l0.114,-0.108l0.114,-0.11l0.114,-0.109l0.112,-0.111l0.112,-0.111l0.111,-0.112l0.111,-0.113l0.109,-0.113l0.11,-0.114l0.108,-0.114l0.108,-0.115l0.107,-0.116l0.106,-0.116l0.106,-0.117l0.105,-0.118l0.105,-0.118l0.103,-0.119l0.103,-0.12l0.103,-0.12l0.101,-0.121l0.101,-0.121l0.1,-0.122l0.099,-0.123l0.099,-0.123l0.098,-0.124l0.097,-0.124l0.097,-0.126l0.095,-0.125l0.095,-0.126l0.095,-0.127l0.093,-0.127l0.093,-0.128l0.092,-0.129l0.091,-0.129l0.091,-0.13l0.089,-0.13l0.089,-0.131l0.088,-0.131l0.088,-0.132l0.086,-0.132l0.086,-0.133l0.085,-0.133l0.085,-0.135l0.083,-0.134l0.083,-0.135l0.082,-0.136l0.081,-0.136l0.08,-0.137l0.08,-0.137l0.078,-0.138l0.078,-0.138l0.077,-0.139l0.076,-0.139l0.076,-0.14l0.074,-0.14l0.074,-0.141l0.073,-0.141l0.072,-0.141l0.071,-0.143l0.071,-0.142l0.069,-0.144l0.069,-0.143l0.068,-0.144l0.067,-0.145l0.066,-0.145l0.065,-0.145l0.065,-0.146l0.063,-0.147l0.063,-0.147l0.062,-0.147l0.061,-0.148l0.06,-0.148l0.059,-0.149l0.058,-0.149l0.058,-0.149l0.056,-0.15l0.056,-0.151l0.055,-0.151l0.054,-0.151l0.053,-0.152l0.052,-0.152l0.051,-0.152l0.05,-0.153l0.049,-0.153l0.049,-0.154l0.047,-0.154l0.047,-0.155l0.045,-0.155l0.045,-0.155l0.044,-0.156l0.043,-0.156l0.042,-0.156l0.04,-0.157l0.04,-0.158l0.039,-0.157l0.038,-0.158l0.037,-0.159l0.037,-0.158l0.035,-0.159l0.034,-0.16l0.033,-0.16l0.033,-0.16l0.031,-0.161l0.03,-0.161l0.03,-0.161l0.028,-0.162l0.028,-0.162l0.026,-0.162l0.025,-0.163l0.025,-0.163l0.023,-0.163l0.023,-0.164l0.021,-0.164l0.02,-0.164l0.02,-0.165l0.018,-0.165l0.017,-0.165l0.017,-0.166l0.015,-0.166l0.014,-0.166l0.013,-0.166l0.013,-0.167l0.011,-0.168l0.01,-0.167l0.009,-0.168l0.008,-0.168l0.007,-0.169l0.006,-0.168l0.005,-0.169l0.003,-0.17l0.003,-0.169l0.002,-0.17l0,-0.17l0,-0.17l-0.002,-0.17l-0.003,-0.17l-0.003,-0.169l-0.005,-0.169l-0.006,-0.169l-0.007,-0.168l-0.008,-0.169l-0.009,-0.168l-0.01,-0.167l-0.011,-0.167l-0.013,-0.167l-0.013,-0.167l-0.014,-0.166l-0.015,-0.166l-0.017,-0.166l-0.017,-0.165l-0.018,-0.165l-0.02,-0.165l-0.02,-0.164l-0.021,-0.164l-0.023,-0.163l-0.023,-0.164l-0.025,-0.163l-0.025,-0.163l-0.026,-0.162l-0.028,-0.162l-0.028,-0.162l-0.03,-0.161l-0.03,-0.161l-0.031,-0.16l-0.033,-0.161l-0.033,-0.159l-0.034,-0.16l-0.035,-0.159l-0.037,-0.159l-0.037,-0.158l-0.038,-0.158l-0.039,-0.158l-0.04,-0.157l-0.04,-0.157l-0.042,-0.157l-0.043,-0.156l-0.044,-0.155l-0.045,-0.156l-0.045,-0.155l-0.047,-0.154l-0.047,-0.154l-0.049,-0.154l-0.049,-0.153l-0.05,-0.153l-0.051,-0.153l-0.052,-0.152l-0.053,-0.152l-0.054,-0.151l-0.055,-0.151l-0.056,-0.15l-0.056,-0.15l-0.058,-0.15l-0.058,-0.149l-0.059,-0.149l-0.06,-0.148l-0.061,-0.147l-0.062,-0.148l-0.063,-0.147l-0.063,-0.146l-0.065,-0.146l-0.065,-0.146l-0.066,-0.145l-0.067,-0.144l-0.068,-0.144l-0.069,-0.144l-0.069,-0.143l-0.071,-0.143l-0.071,-0.142l-0.072,-0.142l-0.073,-0.141l-0.074,-0.141l-0.074,-0.14l-0.076,-0.14l-0.076,-0.139l-0.077,-0.139l-0.078,-0.138l-0.078,-0.138l-0.08,-0.137l-0.08,-0.137l-0.081,-0.136l-0.082,-0.135l-0.083,-0.135l-0.083,-0.135l-0.085,-0.134l-0.085,-0.133l-0.086,-0.133l-0.086,-0.133l-0.088,-0.132l-0.088,-0.131l-0.089,-0.131l-0.089,-0.13l-0.091,-0.13l-0.091,-0.129l-0.092,-0.128l-0.093,-0.128l-0.093,-0.127l-0.095,-0.127l-0.095,-0.126l-0.095,-0.126l-0.097,-0.125l-0.097,-0.125l-0.098,-0.123l-0.099,-0.124l-0.099,-0.122l-0.1,-0.122l-0.101,-0.122l-0.101,-0.12l-0.103,-0.121l-0.103,-0.119l-0.103,-0.119l-0.105,-0.118l-0.105,-0.118l-0.106,-0.117l-0.106,-0.117l-0.107,-0.115l-0.108,-0.116l-0.108,-0.114l-0.11,-0.114l-0.109,-0.113l-0.111,-0.112l-0.111,-0.112l-0.112,-0.112l-0.113,-0.11l-0.113,-0.11l-0.113,-0.109l-0.115,-0.109l-0.115,-0.107l-0.116,-0.108l-0.116,-0.106l-0.117,-0.106l-0.118,-0.105l-0.118,-0.104l-0.119,-0.104l-0.12,-0.103l-0.12,-0.102l-0.121,-0.102l-0.121,-0.101l-0.122,-0.1l-0.123,-0.099l-0.123,-0.099l-0.124,-0.098l-0.124,-0.097l-0.125,-0.096l-0.126,-0.096l-0.126,-0.095l-0.127,-0.094l-0.127,-0.094l-0.128,-0.092l-0.129,-0.092l-0.129,-0.092l-0.129,-0.09l-0.131,-0.09l-0.131,-0.089l-0.131,-0.088l-0.131,-0.087l-0.133,-0.087l-0.133,-0.086l-0.133,-0.085l-0.135,-0.084l-0.134,-0.084l-0.135,-0.082l-0.136,-0.082l-0.136,-0.081l-0.137,-0.081l-0.137,-0.079l-0.138,-0.079l-0.138,-0.078l-0.139,-0.077l-0.139,-0.076l-0.139,-0.075l-0.141,-0.075l-0.14,-0.074l-0.142,-0.073l-0.142,-0.072l-0.142,-0.071l-0.142,-0.07l-0.144,-0.07l-0.143,-0.069l-0.144,-0.067l-0.145,-0.067l-0.145,-0.067l-0.145,-0.065l-0.146,-0.064l-0.147,-0.064l-0.147,-0.063l-0.147,-0.061l-0.148,-0.061l-0.148,-0.06l-0.149,-0.06l-0.149,-0.058l-0.149,-0.057l-0.15,-0.057l-0.151,-0.056l-0.151,-0.054l-0.151,-0.054l-0.152,-0.053l-0.151,-0.052l-0.153,-0.051l-0.153,-0.051l-0.153,-0.049l-0.154,-0.048l-0.154,-0.048l-0.155,-0.046l-0.155,-0.046l-0.155,-0.044l-0.156,-0.044l-0.156,-0.043l-0.157,-0.042l-0.156,-0.041l-0.158,-0.04l-0.157,-0.039l-0.158,-0.038l-0.159,-0.037l-0.048,-0.011l0,-4.009l0.014,0.003l0.184,0.037l0.184,0.038l0.183,0.039l0.183,0.041l0.183,0.042l0.182,0.042l0.182,0.044l0.182,0.045l0.181,0.046l0.18,0.047l0.18,0.048l0.18,0.05l0.179,0.05l0.179,0.051l0.356,0.106l0.177,0.055l0.354,0.112l0.176,0.058l0.175,0.059l0.175,0.06l0.175,0.061l0.174,0.062l0.173,0.063l0.173,0.064l0.173,0.065l0.172,0.066l0.172,0.067l0.171,0.068l0.17,0.069l0.17,0.07l0.17,0.072l0.169,0.072l0.168,0.073l0.168,0.074l0.167,0.075l0.167,0.076l0.167,0.077l0.165,0.078l0.165,0.079l0.165,0.08l0.164,0.081l0.164,0.082l0.162,0.083l0.163,0.084l0.162,0.085l0.161,0.085l0.161,0.087l0.16,0.088l0.159,0.088l0.159,0.09l0.158,0.09l0.158,0.092l0.157,0.092l0.157,0.093l0.155,0.094l0.156,0.095l0.154,0.096l0.154,0.097l0.154,0.098l0.153,0.098l0.152,0.1l0.151,0.1l0.151,0.101l0.3,0.206l0.149,0.104l0.148,0.104l0.148,0.106l0.147,0.107l0.146,0.107l0.145,0.108l0.145,0.109l0.145,0.11l0.143,0.111l0.143,0.112l0.142,0.112l0.142,0.114l0.141,0.114l0.14,0.115l0.139,0.115l0.139,0.117l0.138,0.117l0.274,0.238l0.135,0.119l0.136,0.121l0.134,0.121l0.134,0.123l0.133,0.123l0.132,0.123l0.262,0.25l0.13,0.127l0.129,0.126l0.256,0.256l0.127,0.13l0.126,0.13l0.125,0.13l0.125,0.132l0.124,0.132l0.123,0.133l0.122,0.133l0.242,0.27l0.12,0.136l0.119,0.136l0.236,0.276l0.116,0.138l0.116,0.14l0.115,0.14l0.114,0.141l0.113,0.141l0.113,0.142l0.111,0.143l0.111,0.144l0.11,0.144l0.109,0.145l0.216,0.292l0.106,0.147l0.106,0.148l0.105,0.148l0.104,0.149l0.103,0.149l0.102,0.15l0.101,0.151l0.101,0.152l0.099,0.152l0.099,0.153l0.098,0.153l0.096,0.154l0.096,0.155l0.095,0.155l0.095,0.156l0.093,0.156l0.092,0.157l0.182,0.316l0.089,0.159l0.089,0.16l0.087,0.16l0.087,0.161l0.086,0.161l0.085,0.162l0.083,0.162l0.083,0.163l0.082,0.163l0.081,0.164l0.08,0.165l0.079,0.165l0.078,0.166l0.077,0.166l0.077,0.167l0.075,0.168l0.074,0.167l0.073,0.169l0.072,0.169l0.071,0.169l0.07,0.17l0.069,0.171l0.136,0.342l0.066,0.172l0.065,0.173l0.064,0.173l0.063,0.174l0.062,0.174l0.061,0.174l0.059,0.175l0.059,0.176l0.058,0.176l0.057,0.176l0.055,0.177l0.055,0.178l0.054,0.177l0.052,0.179l0.052,0.178l0.05,0.18l0.049,0.179l0.048,0.18l0.094,0.362l0.044,0.181l0.044,0.182l0.043,0.182l0.082,0.366l0.078,0.368l0.037,0.184l0.036,0.184l0.035,0.186l0.034,0.185l0.064,0.372l0.03,0.187l0.029,0.187l0.028,0.188l0.027,0.187l0.026,0.188l0.025,0.189l0.023,0.189l0.022,0.189l0.021,0.19l0.02,0.19l0.019,0.19l0.018,0.191l0.016,0.191l0.015,0.191l0.014,0.192l0.013,0.192l0.012,0.192l0.01,0.193l0.009,0.193l0.008,0.193l0.007,0.193l0.01,0.388l0.003,0.195l0.002,0.195l0,0.39Z" style="fill:#2d6caa;fill-rule:nonzero;"/></g></svg>